<svg xmlns="http://www.w3.org/2000/svg" viewBox="226 250 580 540"><path d="M771.6 688.5 C770.7 696.8 764.4 709.8 759.9 716.0 C755.4 722.2 749.9 722.8 744.7 725.6 C739.4 728.4 734.0 730.6 728.5 732.9 C723.1 735.1 718.0 737.2 712.0 739.2 C706.1 741.3 700.2 743.3 692.7 745.0 C685.2 746.8 677.1 748.6 667.2 750.0 C657.3 751.4 646.2 752.5 633.2 753.5 C620.1 754.4 609.5 754.9 588.7 755.6 C567.8 756.3 534.5 757.0 508.1 757.6 C481.7 758.2 450.1 758.8 430.2 759.1 C410.4 759.3 401.6 759.2 389.1 759.1 C376.6 759.0 365.7 758.9 355.2 758.5 C344.8 758.2 335.0 757.7 326.2 757.0 C317.3 756.2 309.3 755.2 302.2 753.9 C295.0 752.6 288.9 751.0 283.1 749.1 C277.4 747.2 272.6 745.2 267.9 742.6 C263.1 740.0 259.0 739.5 254.7 733.6 C250.4 727.7 243.8 715.3 242.0 707.1 C240.3 698.9 242.4 690.3 244.0 684.4 C245.6 678.5 247.5 675.5 251.7 671.8 C255.9 668.1 261.9 665.0 269.3 662.3 C276.7 659.6 286.2 657.5 296.0 655.7 C305.8 654.0 317.2 652.7 328.2 651.6 C339.2 650.5 350.6 649.8 361.9 649.0 C373.2 648.3 384.0 647.7 396.0 646.9 C408.0 646.1 416.1 645.4 434.1 644.4 C452.1 643.4 480.3 641.9 504.0 640.8 C527.7 639.7 557.3 638.4 576.0 637.8 C594.7 637.1 604.1 637.0 616.4 636.9 C628.8 636.9 639.4 637.1 650.0 637.5 C660.6 638.0 670.3 638.5 680.0 639.4 C689.6 640.2 699.0 641.1 707.8 642.4 C716.6 643.8 725.4 645.3 733.0 647.3 C740.6 649.4 747.8 651.7 753.2 654.9 C758.7 658.0 762.6 660.6 765.6 666.2 C768.7 671.8 772.6 680.2 771.6 688.5Z" fill="#9E2F0C"/><path d="M771.6 644.9 C770.7 653.2 764.4 666.1 759.9 672.3 C755.4 678.5 749.9 679.1 744.7 681.9 C739.4 684.8 734.0 686.9 728.5 689.2 C723.1 691.4 718.0 693.5 712.0 695.5 C706.1 697.6 700.2 699.6 692.7 701.4 C685.2 703.2 677.1 704.9 667.2 706.3 C657.3 707.7 646.2 708.9 633.2 709.8 C620.1 710.7 609.5 711.2 588.7 711.9 C567.8 712.6 534.5 713.4 508.1 714.0 C481.7 714.5 450.1 715.1 430.2 715.4 C410.4 715.6 401.6 715.5 389.1 715.4 C376.6 715.3 365.7 715.2 355.2 714.9 C344.8 714.5 335.0 714.1 326.2 713.3 C317.3 712.5 309.3 711.5 302.2 710.2 C295.0 708.9 288.9 707.3 283.1 705.4 C277.4 703.5 272.6 701.5 267.9 698.9 C263.1 696.4 259.0 695.8 254.7 689.9 C250.4 684.0 243.8 671.6 242.0 663.4 C240.3 655.2 242.4 646.6 244.0 640.7 C245.6 634.9 247.5 631.8 251.7 628.1 C255.9 624.5 261.9 621.3 269.3 618.6 C276.7 616.0 286.2 613.8 296.0 612.1 C305.8 610.3 317.2 609.1 328.2 607.9 C339.2 606.8 350.6 606.2 361.9 605.4 C373.2 604.6 384.0 604.0 396.0 603.2 C408.0 602.4 416.1 601.7 434.1 600.7 C452.1 599.7 480.3 598.2 504.0 597.1 C527.7 596.0 557.3 594.7 576.0 594.1 C594.7 593.5 604.1 593.3 616.4 593.3 C628.8 593.2 639.4 593.5 650.0 593.9 C660.6 594.3 670.3 594.9 680.0 595.7 C689.6 596.5 699.0 597.4 707.8 598.8 C716.6 600.1 725.4 601.6 733.0 603.6 C740.6 605.7 747.8 608.1 753.2 611.2 C758.7 614.4 762.6 616.9 765.6 622.6 C768.7 628.2 772.6 636.6 771.6 644.9Z" fill="#E8541E"/><path d="M721.8 567.5 C721.8 574.0 717.3 584.0 714.6 588.9 C711.8 593.8 709.1 594.6 705.3 596.8 C701.5 599.0 697.2 600.7 691.8 602.0 C686.5 603.4 680.3 604.3 673.5 604.8 C666.7 605.4 658.9 605.5 651.0 605.5 C643.2 605.5 634.7 605.0 626.4 604.7 C618.1 604.3 610.0 603.8 601.3 603.5 C592.6 603.2 586.4 603.0 574.1 602.8 C561.8 602.5 543.6 602.1 527.2 601.8 C510.9 601.5 490.2 601.2 476.0 601.0 C461.8 600.8 452.5 600.9 441.9 600.5 C431.4 600.0 421.6 599.4 412.9 598.4 C404.1 597.5 396.3 596.1 389.6 594.6 C382.8 593.1 377.2 591.3 372.3 589.3 C367.3 587.4 363.4 585.2 359.9 582.9 C356.3 580.6 353.4 578.3 351.0 575.5 C348.6 572.8 346.7 571.5 345.6 566.4 C344.5 561.3 342.3 551.0 344.2 544.8 C346.1 538.6 352.6 533.1 357.1 529.2 C361.6 525.3 366.3 523.6 371.2 521.4 C376.2 519.2 381.7 517.6 387.0 516.1 C392.2 514.5 397.5 513.2 402.7 511.9 C408.0 510.6 412.9 509.3 418.4 508.2 C423.9 507.1 429.2 505.9 435.6 505.0 C442.0 504.2 448.7 503.4 456.9 503.0 C465.1 502.7 472.1 502.6 484.8 503.1 C497.4 503.7 517.2 505.0 533.0 506.3 C548.7 507.6 567.3 509.4 579.2 510.8 C591.2 512.1 596.8 513.3 604.7 514.5 C612.6 515.7 619.4 516.8 626.6 517.9 C633.9 519.1 641.0 520.1 648.2 521.4 C655.5 522.7 663.0 524.0 669.8 525.7 C676.7 527.4 683.6 529.2 689.4 531.5 C695.3 533.8 700.5 536.4 704.7 539.4 C709.0 542.5 711.9 545.1 714.8 549.8 C717.6 554.4 721.9 560.9 721.8 567.5Z" fill="#B23C12"/><path d="M721.8 531.6 C721.8 538.1 717.3 548.1 714.6 553.0 C711.8 557.9 709.1 558.8 705.3 560.9 C701.5 563.1 697.2 564.8 691.8 566.1 C686.5 567.5 680.3 568.4 673.5 569.0 C666.7 569.6 658.9 569.7 651.0 569.6 C643.2 569.6 634.7 569.1 626.4 568.8 C618.1 568.5 610.0 567.9 601.3 567.6 C592.6 567.3 586.4 567.2 574.1 566.9 C561.8 566.6 543.6 566.3 527.2 566.0 C510.9 565.7 490.2 565.4 476.0 565.1 C461.8 564.9 452.5 565.0 441.9 564.6 C431.4 564.2 421.6 563.5 412.9 562.6 C404.1 561.6 396.3 560.3 389.6 558.7 C382.8 557.2 377.2 555.4 372.3 553.4 C367.3 551.5 363.4 549.4 359.9 547.1 C356.3 544.8 353.4 542.4 351.0 539.7 C348.6 536.9 346.7 535.7 345.6 530.5 C344.5 525.4 342.3 515.1 344.2 508.9 C346.1 502.7 352.6 497.2 357.1 493.3 C361.6 489.4 366.3 487.7 371.2 485.5 C376.2 483.3 381.7 481.8 387.0 480.2 C392.2 478.6 397.5 477.3 402.7 476.0 C408.0 474.7 412.9 473.5 418.4 472.3 C423.9 471.2 429.2 470.0 435.6 469.1 C442.0 468.3 448.7 467.5 456.9 467.2 C465.1 466.8 472.1 466.7 484.8 467.2 C497.4 467.8 517.2 469.1 533.0 470.4 C548.7 471.7 567.3 473.5 579.2 474.9 C591.2 476.2 596.8 477.4 604.7 478.6 C612.6 479.8 619.4 480.9 626.6 482.1 C633.9 483.2 641.0 484.2 648.2 485.5 C655.5 486.8 663.0 488.1 669.8 489.8 C676.7 491.5 683.6 493.4 689.4 495.6 C695.3 497.9 700.5 500.5 704.7 503.6 C709.0 506.6 711.9 509.2 714.8 513.9 C717.6 518.6 721.9 525.1 721.8 531.6Z" fill="#FF6A2B"/><path d="M609.1 423.8 C609.1 428.6 606.5 436.1 604.7 439.9 C603.0 443.8 601.1 444.8 598.7 446.8 C596.4 448.8 593.6 450.5 590.7 452.1 C587.8 453.7 584.4 455.1 581.1 456.4 C577.8 457.8 574.3 459.1 570.8 460.4 C567.2 461.7 563.8 463.0 559.8 464.4 C555.8 465.8 551.9 467.3 546.8 468.7 C541.8 470.2 537.5 471.6 529.3 473.1 C521.1 474.5 508.4 476.3 497.6 477.4 C486.7 478.6 473.2 479.8 464.2 480.2 C455.2 480.7 449.8 480.5 443.7 480.2 C437.7 480.0 432.7 479.4 427.9 478.7 C423.1 478.1 419.0 477.3 414.8 476.5 C410.6 475.7 406.7 474.9 402.9 474.0 C399.0 473.0 395.2 472.1 391.7 470.9 C388.3 469.6 385.0 468.3 382.4 466.4 C379.8 464.5 377.9 463.6 376.3 459.6 C374.8 455.7 372.2 447.8 373.1 442.8 C373.9 437.8 378.6 433.1 381.5 429.5 C384.5 426.0 387.5 423.9 390.6 421.5 C393.7 419.1 397.0 417.0 400.3 415.0 C403.6 413.1 406.9 411.3 410.4 409.6 C414.0 407.9 417.7 406.4 421.7 405.0 C425.7 403.7 430.0 402.5 434.6 401.4 C439.1 400.4 443.9 399.6 449.1 398.7 C454.2 397.9 458.5 397.4 465.5 396.5 C472.5 395.7 482.2 394.7 490.8 393.7 C499.5 392.6 509.8 391.4 517.4 390.4 C525.1 389.4 530.5 388.5 536.8 387.9 C543.2 387.2 549.5 386.6 555.4 386.4 C561.4 386.3 567.4 386.4 572.5 387.1 C577.6 387.7 582.4 388.8 586.3 390.3 C590.2 391.8 593.3 393.7 595.9 395.9 C598.4 398.0 600.1 400.5 601.7 403.1 C603.2 405.7 603.9 408.0 605.2 411.5 C606.4 415.0 609.2 419.1 609.1 423.8Z" fill="#C24A18"/><path d="M609.1 393.7 C609.1 398.4 606.5 406.0 604.7 409.8 C603.0 413.6 601.1 414.6 598.7 416.6 C596.4 418.7 593.6 420.3 590.7 421.9 C587.8 423.5 584.4 424.9 581.1 426.3 C577.8 427.7 574.3 428.9 570.8 430.2 C567.2 431.6 563.8 432.9 559.8 434.2 C555.8 435.6 551.9 437.1 546.8 438.6 C541.8 440.0 537.5 441.5 529.3 442.9 C521.1 444.4 508.4 446.1 497.6 447.3 C486.7 448.5 473.2 449.6 464.2 450.1 C455.2 450.5 449.8 450.3 443.7 450.1 C437.7 449.8 432.7 449.2 427.9 448.6 C423.1 447.9 419.0 447.1 414.8 446.4 C410.6 445.6 406.7 444.8 402.9 443.8 C399.0 442.9 395.2 442.0 391.7 440.7 C388.3 439.5 385.0 438.1 382.4 436.3 C379.8 434.4 377.9 433.4 376.3 429.5 C374.8 425.5 372.2 417.6 373.1 412.6 C373.9 407.6 378.6 402.9 381.5 399.3 C384.5 395.8 387.5 393.7 390.6 391.3 C393.7 388.9 397.0 386.9 400.3 384.9 C403.6 382.9 406.9 381.1 410.4 379.4 C414.0 377.8 417.7 376.2 421.7 374.9 C425.7 373.5 430.0 372.3 434.6 371.3 C439.1 370.2 443.9 369.4 449.1 368.6 C454.2 367.8 458.5 367.2 465.5 366.4 C472.5 365.5 482.2 364.5 490.8 363.5 C499.5 362.5 509.8 361.2 517.4 360.2 C525.1 359.3 530.5 358.4 536.8 357.7 C543.2 357.0 549.5 356.4 555.4 356.3 C561.4 356.1 567.4 356.3 572.5 356.9 C577.6 357.6 582.4 358.7 586.3 360.1 C590.2 361.6 593.3 363.6 595.9 365.7 C598.4 367.8 600.1 370.3 601.7 372.9 C603.2 375.5 603.9 377.9 605.2 381.3 C606.4 384.8 609.2 388.9 609.1 393.7Z" fill="#FF8A4C"/><path d="M571.9 339.2 C571.5 341.7 570.4 345.7 569.8 347.9 C569.2 350.1 568.9 351.1 568.2 352.6 C567.5 354.1 566.8 355.5 565.6 356.7 C564.5 357.9 563.0 359.1 561.3 360.0 C559.6 361.0 557.5 361.8 555.2 362.5 C552.9 363.1 550.3 363.7 547.6 364.1 C544.8 364.5 541.9 364.8 538.7 365.0 C535.5 365.1 532.3 365.3 528.3 365.2 C524.2 365.0 518.9 364.7 514.2 364.2 C509.5 363.8 504.1 363.1 500.0 362.4 C495.9 361.6 492.6 360.8 489.5 359.8 C486.3 358.9 483.6 357.7 481.1 356.6 C478.6 355.5 476.4 354.2 474.3 353.0 C472.2 351.8 470.4 350.5 468.6 349.2 C466.8 347.9 465.1 346.7 463.6 345.2 C462.1 343.8 460.6 342.4 459.6 340.8 C458.5 339.1 457.6 338.0 457.3 335.5 C457.0 332.9 456.9 328.1 457.7 325.4 C458.6 322.6 460.6 320.7 462.2 318.9 C463.9 317.2 465.9 316.0 467.8 314.7 C469.7 313.5 471.7 312.5 473.7 311.4 C475.6 310.4 477.5 309.5 479.5 308.6 C481.4 307.6 483.3 306.7 485.3 305.9 C487.4 305.0 489.5 304.2 491.8 303.5 C494.2 302.8 496.7 302.1 499.6 301.7 C502.4 301.3 505.3 301.0 509.0 300.9 C512.7 300.9 517.4 301.2 521.8 301.5 C526.1 301.8 531.0 302.4 534.9 302.9 C538.9 303.5 542.1 304.0 545.4 304.8 C548.7 305.6 551.8 306.5 554.7 307.5 C557.6 308.6 560.3 309.9 562.6 311.3 C564.9 312.7 566.8 314.4 568.3 316.0 C569.8 317.7 570.8 319.6 571.5 321.4 C572.2 323.3 572.4 325.2 572.5 327.0 C572.6 328.9 572.3 330.6 572.2 332.6 C572.1 334.6 572.3 336.6 571.9 339.2Z" fill="#D5621F"/><path d="M571.9 317.8 C571.5 320.4 570.4 324.3 569.8 326.6 C569.2 328.8 568.9 329.8 568.2 331.3 C567.5 332.8 566.8 334.1 565.6 335.4 C564.5 336.6 563.0 337.7 561.3 338.7 C559.6 339.7 557.5 340.5 555.2 341.2 C552.9 341.8 550.3 342.3 547.6 342.7 C544.8 343.2 541.9 343.5 538.7 343.6 C535.5 343.8 532.3 344.0 528.3 343.8 C524.2 343.7 518.9 343.4 514.2 342.9 C509.5 342.5 504.1 341.8 500.0 341.0 C495.9 340.3 492.6 339.5 489.5 338.5 C486.3 337.5 483.6 336.4 481.1 335.3 C478.6 334.1 476.4 332.9 474.3 331.7 C472.2 330.4 470.4 329.2 468.6 327.9 C466.8 326.6 465.1 325.3 463.6 323.9 C462.1 322.5 460.6 321.1 459.6 319.5 C458.5 317.8 457.6 316.7 457.3 314.1 C457.0 311.6 456.9 306.8 457.7 304.1 C458.6 301.3 460.6 299.4 462.2 297.6 C463.9 295.8 465.9 294.6 467.8 293.4 C469.7 292.1 471.7 291.1 473.7 290.1 C475.6 289.1 477.5 288.2 479.5 287.3 C481.4 286.3 483.3 285.4 485.3 284.6 C487.4 283.7 489.5 282.8 491.8 282.1 C494.2 281.4 496.7 280.8 499.6 280.4 C502.4 280.0 505.3 279.7 509.0 279.6 C512.7 279.6 517.4 279.8 521.8 280.2 C526.1 280.5 531.0 281.0 534.9 281.6 C538.9 282.1 542.1 282.7 545.4 283.5 C548.7 284.3 551.8 285.1 554.7 286.2 C557.6 287.3 560.3 288.6 562.6 290.0 C564.9 291.4 566.8 293.0 568.3 294.7 C569.8 296.4 570.8 298.3 571.5 300.1 C572.2 301.9 572.4 303.8 572.5 305.7 C572.6 307.6 572.3 309.2 572.2 311.3 C572.1 313.3 572.3 315.3 571.9 317.8Z" fill="#FFB062"/></svg>